<svg width="71" height="48" viewBox="0 0 71 48" fill="none" xmlns="http://www.w3.org/2000/svg">
<path d="M60 24.6975C60 27.7557 58.1598 29 56.1292 29C53.6929 29 52 27.5284 52 24.597V19H54.1666V24.1113C54.1666 25.6691 54.613 26.8559 56.1292 26.8559C57.4414 26.8559 57.8334 25.8414 57.8334 24.2405V19H60V24.6975Z" fill="#F7ECD6"/>
<path d="M47 48H0V0H47V16.423H44.8212V2.22518H2.17654V45.7748H44.8212V31.4698H47V48Z" fill="#F7ECD6"/>
<path d="M37.321 29L32.9687 22.999V29H31V19H32.679L37.0335 25.0273L37.0291 19H38.9956L39 29H37.321Z" fill="#F7ECD6"/>
<path d="M42 19H49V21.1425H46.4647V29H44.5333V21.1425H42V19Z" fill="#F7ECD6"/>
<path d="M10 19H12.1268V23.3568L15.1702 19H17.7219L14.2269 23.615L18 29H15.3037L12.1268 24.2415V29H10V19Z" fill="#F7ECD6"/>
<path d="M23.499 26.929C25.1078 26.929 25.9425 25.6301 25.9425 24C25.9425 22.2317 24.8658 21.071 23.499 21.071C22.0967 21.071 21.0575 22.2317 21.0575 24C21.0575 25.6563 22.1447 26.929 23.499 26.929ZM23.499 19C26.076 19 28 20.9185 28 24C28 26.929 26.076 29 23.499 29C20.924 29 19 27.0791 19 24C19 21.195 20.8029 19 23.499 19Z" fill="#F7ECD6"/>
<path d="M65.2021 21.1728V23.3886H65.9991C66.8399 23.3886 67.4987 23.0727 67.4987 22.2304C67.4987 21.6729 67.2269 21.1704 66.1673 21.1704C65.8356 21.1704 65.6559 21.1584 65.2021 21.1728ZM63 29V19C63.5367 19 65.9991 19 66.2755 19C68.9038 19 69.839 20.3568 69.839 22.2017C69.839 24.0586 68.738 24.8172 68.2151 25.09L71 29H68.3303L66.013 25.5327H65.2021V29H63Z" fill="#F7ECD6"/>
</svg>
